<svg aria-hidden="true" style="position: absolute; width: 0; height: 0; overflow: hidden;" version="1.1" xmlns="http://www.w3.org/2000/svg" xmlns:xlink="http://www.w3.org/1999/xlink">
<defs>
 <symbol fill="inherit" xmlns="http://www.w3.org/2000/svg" viewBox="0 0 24 24" id="bag">
    <path d="M20.94 18.06L19.26 8.31C19.1453 7.47997 18.7404 6.71734 18.1172 6.15725C17.4939 5.59716 16.6926 5.27576 15.855 5.25H15.75C15.75 4.25544 15.3549 3.30161 14.6517 2.59835C13.9484 1.89509 12.9946 1.5 12 1.5C11.0055 1.5 10.0516 1.89509 9.34837 2.59835C8.64511 3.30161 8.25002 4.25544 8.25002 5.25H8.14502C7.30749 5.27576 6.50611 5.59716 5.88287 6.15725C5.25963 6.71734 4.85477 7.47997 4.74002 8.31L3.06002 18.06C2.95683 18.6256 2.97926 19.2071 3.12572 19.7631C3.27217 20.3191 3.53907 20.8361 3.90752 21.2775C4.21796 21.6565 4.60803 21.9625 5.05003 22.1738C5.49204 22.385 5.97513 22.4964 6.46502 22.5H17.535C18.0249 22.4964 18.508 22.385 18.95 22.1738C19.392 21.9625 19.7821 21.6565 20.0925 21.2775C20.461 20.8361 20.7279 20.3191 20.8743 19.7631C21.0208 19.2071 21.0432 18.6256 20.94 18.06ZM12 3C12.5968 3 13.1691 3.23705 13.591 3.65901C14.013 4.08097 14.25 4.65326 14.25 5.25H9.75002C9.75002 4.65326 9.98707 4.08097 10.409 3.65901C10.831 3.23705 11.4033 3 12 3ZM18.945 20.31C18.7755 20.522 18.5612 20.6938 18.3174 20.8131C18.0736 20.9325 17.8064 20.9963 17.535 21H6.46502C6.19362 20.9963 5.92643 20.9325 5.68263 20.8131C5.43883 20.6938 5.2245 20.522 5.05502 20.31C4.82646 20.0365 4.66149 19.7157 4.57199 19.3707C4.4825 19.0257 4.47073 18.6651 4.53752 18.315L6.21752 8.565C6.27335 8.08382 6.49737 7.63782 6.85004 7.30574C7.20271 6.97365 7.66135 6.77683 8.14502 6.75H15.855C16.3387 6.77683 16.7973 6.97365 17.15 7.30574C17.5027 7.63782 17.7267 8.08382 17.7825 8.565L19.4625 18.315C19.5293 18.6651 19.5175 19.0257 19.428 19.3707C19.3386 19.7157 19.1736 20.0365 18.945 20.31Z"></path>
  </symbol>
<symbol fill="inherit" xmlns="http://www.w3.org/2000/svg" viewBox="-2 0 16 13" id="search">
    <g clip-path="url(#clip0_9_19)">
      <path d="M12.8416 12.0758L9.60783 8.84204C10.4886 7.76481 10.9216 6.39027 10.8173 5.00273C10.7131 3.61519 10.0795 2.3208 9.04763 1.3873C8.01577 0.453803 6.66459 -0.0473866 5.27357 -0.0126007C3.88255 0.0221852 2.55811 0.590285 1.57421 1.57419C0.5903 2.5581 0.0222005 3.88254 -0.0125854 5.27356C-0.0473713 6.66458 0.453818 8.01576 1.38732 9.04761C2.32081 10.0795 3.6152 10.7131 5.00274 10.8173C6.39029 10.9216 7.76483 10.4886 8.84205 9.60782L12.0758 12.8416C12.1791 12.9339 12.3139 12.9832 12.4524 12.9793C12.5909 12.9754 12.7227 12.9186 12.8207 12.8207C12.9187 12.7227 12.9754 12.5909 12.9793 12.4524C12.9832 12.3139 12.9339 12.1791 12.8416 12.0758ZM5.41737 9.75001C4.55987 9.75041 3.72153 9.49647 3.00838 9.02033C2.29523 8.54418 1.73933 7.86721 1.411 7.07507C1.08266 6.28293 0.996649 5.4112 1.16384 4.57016C1.33103 3.72913 1.74391 2.95657 2.35025 2.35023C2.95659 1.74389 3.72914 1.33101 4.57018 1.16382C5.41121 0.996633 6.28294 1.08265 7.07509 1.41098C7.86723 1.73931 8.5442 2.29522 9.02034 3.00836C9.49649 3.72151 9.75042 4.55986 9.75002 5.41735C9.74841 6.56595 9.29142 7.66704 8.47924 8.47922C7.66705 9.2914 6.56596 9.74839 5.41737 9.75001Z" ></path>
    </g>
    <defs>
      <clipPath id="clip0_9_19">
        <rect width="32" height="32" fill="white"></rect>
      </clipPath>
    </defs>
  </symbol>
  <symbol id="heart" viewBox="0 -7 34 40">
<path d="M23.6 2c-3.363 0-6.258 2.736-7.599 5.594-1.342-2.858-4.237-5.594-7.601-5.594-4.637 0-8.4 3.764-8.4 8.401 0 9.433 9.516 11.906 16.001 21.232 6.13-9.268 15.999-12.1 15.999-21.232 0-4.637-3.763-8.401-8.4-8.401z" stroke-width="3" stroke-linecap="round" stroke-linejoin="round"></path>
</symbol>
<symbol id="menu" viewBox="0 0 46 32">
 
<path d="M45.714 29.726c0 1.257-1.019 2.274-2.274 2.274h-18.309c-1.256 0-2.274-1.018-2.274-2.274s1.018-2.274 2.274-2.274h18.309c1.257 0 2.274 1.017 2.274 2.274zM45.714 16c0 1.257-1.019 2.274-2.274 2.274h-41.166c-1.256 0-2.274-1.018-2.274-2.274s1.018-2.274 2.274-2.274h41.166c1.257 0 2.274 1.019 2.274 2.274zM43.44 4.549c1.256 0 2.274-1.018 2.274-2.274s-1.018-2.274-2.274-2.274v0h-27.451c-1.256 0-2.274 1.018-2.274 2.274s1.018 2.274 2.274 2.274v0h27.451z"></path>
</symbol>
<symbol id="logo" fill="none" viewBox="0 0 1000 1000" xmlns="http://www.w3.org/2000/svg">
 <path
        d="M319.225 338h107.306v2.322L312.639 605h-4.261L191 340.322V338h111.567v2.322l-19.369 20.121 61.595 147.044h1.549l8.135-23.217c5.94-12.641 8.91-28.893 8.91-48.757 0-18.832-3.486-36.761-10.459-53.787-6.973-17.026-18.207-30.827-33.703-41.404V338zm143.333 237.204V361.991l-19.757-21.669V338h115.442v2.322l-19.757 21.669v213.213l19.757 21.67v2.322H442.801v-2.322l19.757-21.67zM701.694 338H809v2.322L695.108 605h-4.261L573.469 340.322V338h111.567v2.322l-19.369 20.121 61.594 147.044h1.55l8.135-23.217c5.94-12.641 8.91-28.893 8.91-48.757 0-18.832-3.486-36.761-10.459-53.787-6.973-17.026-18.208-30.827-33.703-41.404V338z"
        fill="#585462"
      />
      <path d="M186 423h681v88H186z" fill="#ced0ef" />
      <path
        d="M270.94 486.31c2.147.28 4.177.957 6.09 2.03V491H255.4v-2.66c.747-.42 1.54-.793 2.38-1.12.84-.373 1.727-.677 2.66-.91v-39.62c-1.073-.233-2.03-.537-2.87-.91a30.924 30.924 0 01-2.17-1.12V442h36.61c0 .933-.047 1.96-.14 3.08-.093 1.073-.21 2.193-.35 3.36a40.993 40.993 0 01-.42 3.36 44.97 44.97 0 01-.49 3.01h-2.87l-3.22-8.26h-13.58v18.41h9.59l3.15-5.39h2.1c.187 1.213.303 2.497.35 3.85.093 1.353.14 2.707.14 4.06-.047 1.4-.117 2.753-.21 4.06a35.626 35.626 0 01-.28 3.5h-2.1l-3.15-5.53h-9.59v16.8zM358.664 442h22.96v2.66c-.98.513-2.077.957-3.29 1.33-1.167.327-2.31.56-3.43.7v39.76h13.51l4.69-12.53h2.87c.186 1.073.35 2.333.49 3.78.186 1.447.326 2.963.42 4.55.093 1.587.163 3.15.21 4.69.046 1.54.046 2.893 0 4.06h-38.43v-2.66a22.97 22.97 0 013.01-1.33c.98-.327 1.89-.56 2.73-.7v-39.62c-2.287-.373-4.2-1.05-5.74-2.03V442zm119.7 49h-17.29v-2.66a14.18 14.18 0 012.38-1.19c.887-.373 1.75-.653 2.59-.84l18.06-45.15h5.18l17.57 45.15a16.02 16.02 0 012.8.84c.933.327 1.75.723 2.45 1.19V491h-21.91v-2.66c.887-.42 1.843-.817 2.87-1.19a20.37 20.37 0 012.94-.84l-4.06-11.13h-15.54l-4.13 11.13c2.147.28 4.177.957 6.09 2.03V491zm-.28-20.37h12.39l-4.55-13.37-1.33-6.02h-.14l-1.54 6.16-4.83 13.23zM638.7 491h-20.93v-2.66a27.087 27.087 0 012.73-1.19 23.068 23.068 0 012.87-.84v-29.26l.35-8.19h-.56l-2.31 7.49L607.34 491h-3.22l-13.44-34.37-2.52-8.19h-.63l.07 8.89v28.7c.887.187 1.867.49 2.94.91 1.074.42 2.077.887 3.01 1.4V491h-17.08v-2.66c.747-.373 1.657-.817 2.73-1.33 1.12-.513 2.17-.863 3.15-1.05v-39.27a31.921 31.921 0 01-3.01-.77c-1.026-.327-1.936-.747-2.73-1.26V442h18.97l10.71 28.49 2.03 6.72h.07l2.1-6.86L621.41 442h17.36v2.66a18.93 18.93 0 01-2.59 1.26c-.886.327-1.796.583-2.73.77v39.69c.98.187 1.914.467 2.8.84.934.373 1.75.747 2.45 1.12V491zm102.668-49c-.093 2.1-.256 4.27-.49 6.51a75.173 75.173 0 01-.91 6.3h-2.87l-3.22-8.26h-13.09v17.15h8.54l3.08-5.39h2.24c.234 2.287.35 4.83.35 7.63s-.116 5.413-.35 7.84h-2.24l-3.08-5.53h-8.54v18.2h13.65l3.71-8.89h2.87c.187.887.374 1.89.56 3.01a39.68 39.68 0 01.42 3.5c.14 1.167.234 2.357.28 3.57.094 1.213.14 2.333.14 3.36h-37.87v-2.66c.794-.42 1.68-.817 2.66-1.19.98-.373 2.007-.653 3.08-.84v-39.62a31.921 31.921 0 01-3.01-.77 16.51 16.51 0 01-2.73-1.26V442h36.82zM370.084 641.468c-2.448 0-4.644-.552-6.588-1.656a12.14 12.14 0 01-4.572-4.644c-1.08-1.992-1.62-4.248-1.62-6.768 0-2.52.54-4.764 1.62-6.732 1.104-1.992 2.628-3.54 4.572-4.644 1.944-1.128 4.14-1.692 6.588-1.692 2.88 0 5.412.78 7.596 2.34 2.208 1.56 3.72 3.66 4.536 6.3h-2.304c-.72-1.992-1.956-3.564-3.708-4.716-1.752-1.152-3.78-1.728-6.084-1.728-2.04 0-3.864.456-5.472 1.368-1.608.912-2.868 2.196-3.78 3.852-.888 1.656-1.332 3.54-1.332 5.652s.444 3.996 1.332 5.652c.912 1.656 2.172 2.94 3.78 3.852 1.608.912 3.432 1.368 5.472 1.368 2.376 0 4.464-.6 6.264-1.8 1.8-1.2 3.048-2.844 3.744-4.932h2.304c-.504 1.8-1.356 3.372-2.556 4.716a12.509 12.509 0 01-4.32 3.132c-1.68.72-3.504 1.08-5.472 1.08zm43.845-25.668h2.088l10.44 25.2h-2.304l-2.628-6.336h-13.104L405.829 641h-2.34l10.44-25.2zm6.768 16.848l-5.724-13.86-5.688 13.86h11.412zM450.42 615.8h2.052l15.336 21.42V615.8h2.16V641h-2.052l-15.336-21.456V641h-2.16v-25.2zm46.748 0h7.956c2.64 0 4.944.528 6.912 1.584 1.992 1.032 3.516 2.496 4.572 4.392 1.08 1.896 1.62 4.104 1.62 6.624 0 2.52-.54 4.728-1.62 6.624-1.056 1.896-2.58 3.372-4.572 4.428-1.968 1.032-4.272 1.548-6.912 1.548h-7.956v-25.2zm7.956 23.112c2.208 0 4.128-.432 5.76-1.296 1.656-.864 2.916-2.088 3.78-3.672.888-1.584 1.332-3.432 1.332-5.544 0-2.112-.444-3.96-1.332-5.544-.888-1.584-2.16-2.808-3.816-3.672-1.632-.864-3.564-1.296-5.796-1.296h-5.688v21.024h5.76zm38.545-23.112h2.196v23.112h12.78V641h-14.976v-25.2zm39.366 0h14.832v2.052h-12.636v9.288h11.7v2.016h-11.7v9.792h13.032V641h-15.228v-25.2zm48.766 25.668c-1.896 0-3.564-.324-5.004-.972-1.44-.648-2.568-1.572-3.384-2.772-.792-1.2-1.212-2.604-1.26-4.212h2.16c.096 1.848.816 3.288 2.16 4.32 1.344 1.032 3.12 1.548 5.328 1.548 2.064 0 3.696-.42 4.896-1.26 1.2-.864 1.8-2.028 1.8-3.492 0-1.32-.564-2.388-1.692-3.204-1.104-.84-2.916-1.536-5.436-2.088-3.12-.72-5.376-1.644-6.768-2.772-1.368-1.152-2.052-2.664-2.052-4.536 0-2.04.768-3.66 2.304-4.86 1.56-1.224 3.672-1.836 6.336-1.836 2.784 0 4.968.672 6.552 2.016 1.608 1.344 2.46 3.228 2.556 5.652h-2.16c-.096-1.776-.756-3.144-1.98-4.104-1.2-.984-2.856-1.476-4.968-1.476-2.016 0-3.6.42-4.752 1.26-1.128.84-1.692 1.956-1.692 3.348 0 1.272.54 2.328 1.62 3.168 1.104.816 2.952 1.512 5.544 2.088 3.144.72 5.4 1.668 6.768 2.844 1.368 1.152 2.052 2.64 2.052 4.464 0 2.112-.804 3.792-2.412 5.04-1.608 1.224-3.78 1.836-6.516 1.836z"
        fill="#585462"
      />
      </symbol>
<symbol id="cross" viewBox="0 0 32 32">
<path d="M31.708 25.708c-0-0-0-0-0-0l-9.708-9.708 9.708-9.708c0-0 0-0 0-0 0.105-0.105 0.18-0.227 0.229-0.357 0.133-0.356 0.057-0.771-0.229-1.057l-4.586-4.586c-0.286-0.286-0.702-0.361-1.057-0.229-0.13 0.048-0.252 0.124-0.357 0.228 0 0-0 0-0 0l-9.708 9.708-9.708-9.708c-0-0-0-0-0-0-0.105-0.104-0.227-0.18-0.357-0.228-0.356-0.133-0.771-0.057-1.057 0.229l-4.586 4.586c-0.286 0.286-0.361 0.702-0.229 1.057 0.049 0.13 0.124 0.252 0.229 0.357 0 0 0 0 0 0l9.708 9.708-9.708 9.708c-0 0-0 0-0 0-0.104 0.105-0.18 0.227-0.229 0.357-0.133 0.355-0.057 0.771 0.229 1.057l4.586 4.586c0.286 0.286 0.702 0.361 1.057 0.229 0.13-0.049 0.252-0.124 0.357-0.229 0-0 0-0 0-0l9.708-9.708 9.708 9.708c0 0 0 0 0 0 0.105 0.105 0.227 0.18 0.357 0.229 0.356 0.133 0.771 0.057 1.057-0.229l4.586-4.586c0.286-0.286 0.362-0.702 0.229-1.057-0.049-0.13-0.124-0.252-0.229-0.357z"></path>
</symbol>
<symbol id="icon-logo" viewBox="6 6 20 20">
<path fill="#ced0ef" style="fill: var(--color1, #ced0ef)" d="M0 0h32v32h-32v-32z"></path>
<path fill="#585462" style="fill: var(--color2, #585462)" d="M10.215 10.816h3.434v0.074l-3.645 8.47h-0.136l-3.756-8.47v-0.074h3.57v0.074l-0.62 0.644 1.971 4.705h0.050l0.26-0.743c0.19-0.405 0.285-0.925 0.285-1.56 0-0.603-0.112-1.176-0.335-1.721s-0.583-0.986-1.079-1.325v-0.074z"></path>
<path fill="#585462" style="fill: var(--color2, #585462)" d="M14.802 18.407v-6.823l-0.632-0.693v-0.074h3.694v0.074l-0.632 0.693v6.823l0.632 0.693v0.074h-3.694v-0.074l0.632-0.693z"></path>
<path fill="#585462" style="fill: var(--color2, #585462)" d="M22.454 10.816h3.434v0.074l-3.645 8.47h-0.136l-3.756-8.47v-0.074h3.57v0.074l-0.62 0.644 1.971 4.705h0.050l0.26-0.743c0.19-0.405 0.285-0.925 0.285-1.56 0-0.603-0.112-1.176-0.335-1.721s-0.583-0.986-1.078-1.325v-0.074z"></path>
<path fill="#ced0ef" style="fill: var(--color1, #ced0ef)" d="M5.952 13.536h21.792v2.816h-21.792v-2.816z"></path>
<path d="M8.67 15.562c0.069 0.009 0.134 0.031 0.195 0.065v0.085h-0.692v-0.085c0.024-0.013 0.049-0.025 0.076-0.036 0.027-0.012 0.055-0.022 0.085-0.029v-1.268c-0.034-0.007-0.065-0.017-0.092-0.029-0.025-0.012-0.049-0.024-0.069-0.036v-0.085h1.172c0 0.030-0.002 0.063-0.004 0.099-0.003 0.034-0.007 0.070-0.011 0.108-0.003 0.036-0.007 0.072-0.013 0.108-0.004 0.034-0.010 0.066-0.016 0.096h-0.092l-0.103-0.264h-0.435v0.589h0.307l0.101-0.172h0.067c0.006 0.039 0.010 0.080 0.011 0.123 0.003 0.043 0.004 0.087 0.004 0.13-0.002 0.045-0.004 0.088-0.007 0.13-0.002 0.042-0.004 0.079-0.009 0.112h-0.067l-0.101-0.177h-0.307v0.538z"></path>
<path d="M11.477 14.144h0.735v0.085c-0.031 0.016-0.066 0.031-0.105 0.043-0.037 0.010-0.074 0.018-0.11 0.022v1.272h0.432l0.15-0.401h0.092c0.006 0.034 0.011 0.075 0.016 0.121 0.006 0.046 0.010 0.095 0.013 0.146s0.005 0.101 0.007 0.15c0.001 0.049 0.001 0.093 0 0.13h-1.23v-0.085c0.034-0.018 0.066-0.032 0.096-0.043 0.031-0.010 0.060-0.018 0.087-0.022v-1.268c-0.073-0.012-0.134-0.034-0.184-0.065v-0.085z"></path>
<path d="M15.308 15.712h-0.553v-0.085c0.024-0.015 0.049-0.028 0.076-0.038 0.028-0.012 0.056-0.021 0.083-0.027l0.578-1.445h0.166l0.562 1.445c0.030 0.006 0.060 0.015 0.090 0.027 0.030 0.010 0.056 0.023 0.078 0.038v0.085h-0.701v-0.085c0.028-0.013 0.059-0.026 0.092-0.038s0.064-0.021 0.094-0.027l-0.13-0.356h-0.497l-0.132 0.356c0.069 0.009 0.134 0.031 0.195 0.065v0.085zM15.299 15.060h0.396l-0.146-0.428-0.043-0.193h-0.004l-0.049 0.197-0.155 0.423z"></path>
<path d="M20.438 15.712h-0.67v-0.085c0.030-0.015 0.059-0.028 0.087-0.038s0.059-0.019 0.092-0.027v-0.936l0.011-0.262h-0.018l-0.074 0.24-0.432 1.109h-0.103l-0.43-1.1-0.081-0.262h-0.020l0.002 0.284v0.918c0.028 0.006 0.060 0.016 0.094 0.029s0.066 0.028 0.096 0.045v0.085h-0.547v-0.085c0.024-0.012 0.053-0.026 0.087-0.043 0.036-0.016 0.069-0.028 0.101-0.034v-1.257c-0.030-0.006-0.062-0.014-0.096-0.025-0.033-0.010-0.062-0.024-0.087-0.040v-0.085h0.607l0.343 0.912 0.065 0.215h0.002l0.067-0.22 0.349-0.907h0.556v0.085c-0.025 0.015-0.053 0.028-0.083 0.040-0.028 0.010-0.057 0.019-0.087 0.025v1.27c0.031 0.006 0.061 0.015 0.090 0.027 0.030 0.012 0.056 0.024 0.078 0.036v0.085z"></path>
<path d="M23.724 14.144c-0.003 0.067-0.008 0.137-0.016 0.208s-0.017 0.139-0.029 0.202h-0.092l-0.103-0.264h-0.419v0.549h0.273l0.099-0.172h0.072c0.008 0.073 0.011 0.155 0.011 0.244s-0.004 0.173-0.011 0.251h-0.072l-0.099-0.177h-0.273v0.582h0.437l0.119-0.284h0.092c0.006 0.028 0.012 0.060 0.018 0.096s0.010 0.073 0.013 0.112c0.004 0.037 0.008 0.075 0.009 0.114 0.003 0.039 0.004 0.075 0.004 0.108h-1.212v-0.085c0.025-0.013 0.054-0.026 0.085-0.038s0.064-0.021 0.099-0.027v-1.268c-0.030-0.006-0.062-0.014-0.096-0.025-0.033-0.012-0.062-0.025-0.087-0.040v-0.085h1.178z"></path>
<path d="M11.843 20.527c-0.078 0-0.149-0.018-0.211-0.053s-0.111-0.086-0.146-0.149c-0.035-0.064-0.052-0.136-0.052-0.217s0.017-0.152 0.052-0.215c0.035-0.064 0.084-0.113 0.146-0.149s0.132-0.054 0.211-0.054c0.092 0 0.173 0.025 0.243 0.075s0.119 0.117 0.145 0.202h-0.074c-0.023-0.064-0.063-0.114-0.119-0.151s-0.121-0.055-0.195-0.055c-0.065 0-0.124 0.015-0.175 0.044s-0.092 0.070-0.121 0.123c-0.028 0.053-0.043 0.113-0.043 0.181s0.014 0.128 0.043 0.181c0.029 0.053 0.069 0.094 0.121 0.123s0.11 0.044 0.175 0.044c0.076 0 0.143-0.019 0.2-0.058s0.098-0.091 0.12-0.158h0.074c-0.016 0.058-0.043 0.108-0.082 0.151s-0.084 0.076-0.138 0.1c-0.054 0.023-0.112 0.035-0.175 0.035z"></path>
<path d="M13.246 19.706h0.067l0.334 0.806h-0.074l-0.084-0.203h-0.419l-0.083 0.203h-0.075l0.334-0.806zM13.462 20.245l-0.183-0.444-0.182 0.444h0.365z"></path>
<path d="M14.413 19.706h0.066l0.491 0.685v-0.685h0.069v0.806h-0.066l-0.491-0.687v0.687h-0.069v-0.806z"></path>
<path d="M15.909 19.706h0.255c0.084 0 0.158 0.017 0.221 0.051s0.113 0.080 0.146 0.141c0.035 0.061 0.052 0.131 0.052 0.212s-0.017 0.151-0.052 0.212c-0.034 0.061-0.083 0.108-0.146 0.142s-0.137 0.050-0.221 0.050h-0.255v-0.806zM16.164 20.445c0.071 0 0.132-0.014 0.184-0.041s0.093-0.067 0.121-0.117c0.028-0.051 0.043-0.11 0.043-0.177s-0.014-0.127-0.043-0.177c-0.028-0.051-0.069-0.090-0.122-0.117s-0.114-0.041-0.185-0.041h-0.182v0.673h0.184z"></path>
<path d="M17.397 19.706h0.070v0.74h0.409v0.067h-0.479v-0.806z"></path>
<path d="M18.657 19.706h0.475v0.066h-0.404v0.297h0.374v0.064h-0.374v0.313h0.417v0.066h-0.487v-0.806z"></path>
<path d="M20.218 20.527c-0.061 0-0.114-0.010-0.16-0.031s-0.082-0.050-0.108-0.089c-0.025-0.038-0.039-0.083-0.040-0.135h0.069c0.003 0.059 0.026 0.105 0.069 0.138s0.1 0.050 0.171 0.050c0.066 0 0.118-0.013 0.157-0.040s0.058-0.065 0.058-0.112c0-0.042-0.018-0.076-0.054-0.103s-0.093-0.049-0.174-0.067c-0.1-0.023-0.172-0.053-0.217-0.089s-0.066-0.085-0.066-0.145c0-0.065 0.025-0.117 0.074-0.156s0.117-0.059 0.203-0.059c0.089 0 0.159 0.021 0.21 0.064s0.079 0.103 0.082 0.181h-0.069c-0.003-0.057-0.024-0.101-0.063-0.131s-0.091-0.047-0.159-0.047c-0.064 0-0.115 0.013-0.152 0.040s-0.054 0.063-0.054 0.107c0 0.041 0.017 0.075 0.052 0.101s0.094 0.048 0.177 0.067c0.101 0.023 0.173 0.053 0.217 0.091s0.066 0.084 0.066 0.143c0 0.068-0.026 0.121-0.077 0.161s-0.121 0.059-0.209 0.059z"></path>
</symbol>
</defs>
</svg>
